<svg width="21" height="20" viewBox="0 0 21 20" fill="none" xmlns="http://www.w3.org/2000/svg">
<path d="M3.75 4.125C3.75 1.84683 5.59683 0 7.875 0C10.1532 0 12 1.84683 12 4.125C12 6.40317 10.1532 8.25 7.875 8.25C5.59683 8.25 3.75 6.40317 3.75 4.125Z" fill="#262626"/>
<path d="M0.75 16.875C0.75 12.94 3.93997 9.75 7.875 9.75C11.81 9.75 15 12.94 15 16.875V16.8776C15 16.9174 14.9996 16.9574 14.999 16.9969C14.9946 17.2554 14.8574 17.4935 14.6359 17.6268C12.6607 18.8161 10.3466 19.5 7.875 19.5C5.40343 19.5 3.0893 18.8161 1.11406 17.6268C0.892563 17.4935 0.755373 17.2554 0.751026 16.9969C0.750345 16.9564 0.75 16.9157 0.75 16.875Z" fill="#262626"/>
<path d="M17.25 5.25C17.25 4.83579 16.9142 4.5 16.5 4.5C16.0858 4.5 15.75 4.83579 15.75 5.25V7.5H13.5C13.0858 7.5 12.75 7.83579 12.75 8.25C12.75 8.66421 13.0858 9 13.5 9H15.75V11.25C15.75 11.6642 16.0858 12 16.5 12C16.9142 12 17.25 11.6642 17.25 11.25V9H19.5C19.9142 9 20.25 8.66421 20.25 8.25C20.25 7.83579 19.9142 7.5 19.5 7.5H17.25V5.25Z" fill="#262626"/>
</svg>
