<svg width="26" height="24" viewBox="0 0 26 24" fill="none" xmlns="http://www.w3.org/2000/svg">
<path d="M4.56318 0.485989C7.03298 0.165333 9.55114 0 12.1075 0C14.6636 0 17.1815 0.1653 19.651 0.485893C21.9394 0.782967 23.5694 2.70163 23.7051 4.92255C23.3172 4.79302 22.9062 4.70709 22.4762 4.67141C20.8232 4.53421 19.1516 4.46428 17.4642 4.46428C15.7769 4.46428 14.1054 4.5342 12.4524 4.6714C9.64488 4.90441 7.64286 7.27936 7.64286 9.95024V15.052C7.64286 17.0647 8.77938 18.9079 10.5391 19.795L7.38135 22.9527C7.12599 23.2081 6.74196 23.2845 6.40832 23.1463C6.07468 23.0081 5.85714 22.6825 5.85714 22.3214V17.5244C5.42439 17.4781 4.99306 17.427 4.56319 17.3712C2.17222 17.0607 0.5 14.9801 0.5 12.6341V5.22307C0.5 2.87704 2.17221 0.79641 4.56318 0.485989Z" fill="#262626"/>
<path d="M17.4642 6.24999C15.8263 6.24999 14.204 6.31787 12.6001 6.45099C10.7676 6.60309 9.42857 8.1581 9.42857 9.95024V15.052C9.42857 16.8469 10.7714 18.4027 12.6062 18.5525C14.087 18.6734 15.5834 18.7395 17.0933 18.7488L20.4044 22.0599C20.6597 22.3152 21.0438 22.3916 21.3774 22.2534C21.711 22.1152 21.9286 21.7897 21.9286 21.4285V18.5834C22.0599 18.5736 22.1912 18.5633 22.3223 18.5526C24.1571 18.4029 25.5 16.847 25.5 15.0521V9.95025C25.5 8.15812 24.161 6.6031 22.3285 6.451C20.7245 6.31787 19.1022 6.24999 17.4642 6.24999Z" fill="#262626"/>
</svg>
