<svg width="29" height="28" viewBox="0 0 29 28" fill="none" xmlns="http://www.w3.org/2000/svg">
<path d="M6.83594 23.1728H16.1963C18.0771 23.1728 19.0527 22.1885 19.0527 20.29V14.665H12.6631C12.1182 14.665 11.6611 14.208 11.6611 13.6543C11.6611 13.1006 12.1182 12.6348 12.6631 12.6348H19.0527V7.02733C19.0527 5.13768 18.0771 4.15331 16.1963 4.15331H6.83594C4.95508 4.15331 3.97949 5.13768 3.97949 7.02733V20.29C3.97949 22.1885 4.95508 23.1728 6.83594 23.1728ZM18.1562 13.6543C18.1562 14.1025 18.5166 14.4629 18.9473 14.4629H21.5752L22.8848 14.4014L22.2344 14.9463L20.9248 16.1767C20.7666 16.3174 20.6875 16.5195 20.6875 16.7217C20.6875 17.1172 20.9775 17.4512 21.3818 17.4512C21.6016 17.4512 21.751 17.3633 21.9004 17.2139L24.748 14.2695C24.9502 14.0586 25.0205 13.8652 25.0205 13.6543C25.0205 13.4433 24.9502 13.25 24.748 13.039L21.9004 10.0859C21.751 9.93651 21.6016 9.85741 21.3818 9.85741C20.9775 9.85741 20.6875 10.1738 20.6875 10.5781C20.6875 10.7715 20.7666 10.9824 20.9248 11.123L22.2344 12.3623L22.8848 12.9072L21.5752 12.8369H18.9473C18.5166 12.8369 18.1562 13.206 18.1562 13.6543Z" fill="#D4353A"/>
</svg>
