<svg width="25" height="25" viewBox="0 0 25 25" fill="none" xmlns="http://www.w3.org/2000/svg">
<path d="M6.35036 4.48017C6.6266 4.17153 6.60034 3.69738 6.29169 3.42114C5.98305 3.14489 5.5089 3.17116 5.23266 3.4798C4.0317 4.82161 3.19605 6.49946 2.8846 8.3559C2.81607 8.7644 3.09167 9.15112 3.50017 9.21965C3.90868 9.28819 4.29539 9.01258 4.36393 8.60408C4.62704 7.03579 5.33301 5.61684 6.35036 4.48017Z" fill="#262626"/>
<path d="M19.767 3.4798C19.4908 3.17116 19.0166 3.14489 18.708 3.42114C18.3993 3.69738 18.373 4.17153 18.6493 4.48017C19.6666 5.61684 20.3726 7.03579 20.6357 8.60408C20.7043 9.01258 21.091 9.28819 21.4995 9.21965C21.908 9.15112 22.1836 8.7644 22.1151 8.3559C21.8036 6.49946 20.9679 4.82161 19.767 3.4798Z" fill="#262626"/>
<path fill-rule="evenodd" clip-rule="evenodd" d="M12.5 3.22998C8.77215 3.22998 5.75012 6.25195 5.75001 9.97978L5.74981 10.73C5.74981 12.8531 4.9488 14.7874 3.63126 16.2499C3.46476 16.4347 3.40073 16.69 3.46033 16.9315C3.51992 17.173 3.69539 17.3693 3.92875 17.4554C5.47287 18.0255 7.08934 18.4459 8.7604 18.6992C8.75351 18.792 8.75001 18.8856 8.75001 18.98C8.75001 21.051 10.4289 22.73 12.5 22.73C14.5711 22.73 16.25 21.051 16.25 18.98C16.25 18.8856 16.2465 18.7919 16.2396 18.6992C17.9105 18.4459 19.5269 18.0254 21.0709 17.4554C21.3042 17.3693 21.4797 17.173 21.5393 16.9315C21.5989 16.69 21.5349 16.4347 21.3684 16.2499C20.0508 14.7874 19.2498 12.8531 19.2498 10.73V10.0292L19.25 9.97998C19.25 6.25206 16.2279 3.22998 12.5 3.22998ZM10.25 18.98C10.25 18.9462 10.2508 18.9126 10.2522 18.8793C10.9927 18.9459 11.7424 18.98 12.4998 18.98C13.2574 18.98 14.0072 18.9459 14.7478 18.8792C14.7493 18.9126 14.75 18.9462 14.75 18.98C14.75 20.2226 13.7427 21.23 12.5 21.23C11.2574 21.23 10.25 20.2226 10.25 18.98Z" fill="#262626"/>
</svg>
