<svg width="21" height="25" viewBox="0 0 21 25" fill="none" xmlns="http://www.w3.org/2000/svg">
<path fill-rule="evenodd" clip-rule="evenodd" d="M4.77194 6.12284C4.77194 3.28252 7.33648 0.97998 10.5 0.97998C13.6635 0.97998 16.2281 3.28252 16.2281 6.12284C16.2281 8.96316 13.6635 11.2657 10.5 11.2657C7.33648 11.2657 4.77194 8.96316 4.77194 6.12284Z" fill="#262626"/>
<path fill-rule="evenodd" clip-rule="evenodd" d="M0.00014248 22.2432C0.098589 17.1121 4.76173 12.98 10.5 12.98C16.2384 12.98 20.9016 17.1123 20.9999 22.2436C21.0064 22.5839 20.788 22.8954 20.4435 23.0374C17.4153 24.2849 14.047 24.98 10.5004 24.98C6.95351 24.98 3.58487 24.2848 0.556497 23.037C0.211961 22.8951 -0.00638664 22.5835 0.00014248 22.2432Z" fill="#262626"/>
</svg>
