<svg width="27" height="26" viewBox="0 0 27 26" fill="none" xmlns="http://www.w3.org/2000/svg">
<path fill-rule="evenodd" clip-rule="evenodd" d="M0.5 3.71429C0.5 1.66294 2.16294 0 4.21429 0H5.91249C6.97772 0 7.90625 0.724976 8.16461 1.7584L9.53369 7.23472C9.76022 8.14085 9.42164 9.09449 8.67443 9.65489L7.0728 10.8561C6.90649 10.9808 6.87033 11.1635 6.91705 11.291C8.32292 15.1289 11.3711 18.1771 15.209 19.583C15.3365 19.6297 15.5192 19.5935 15.6439 19.4272L16.8451 17.8256C17.4055 17.0784 18.3592 16.7398 19.2653 16.9663L24.7416 18.3354C25.775 18.5937 26.5 19.5223 26.5 20.5875V22.2857C26.5 24.3371 24.8371 26 22.7857 26H20C9.23045 26 0.5 17.2696 0.5 6.5V3.71429Z" fill="#1E1E1E"/>
</svg>
