<svg width="28" height="28" viewBox="0 0 28 28" fill="none" xmlns="http://www.w3.org/2000/svg">
<rect y="0.048851" width="28" height="27.9023" rx="13.9511" fill="white"/>
<path d="M14.0632 19.9282C17.3103 19.9282 20 17.2385 20 13.9914C20 10.7385 17.3046 8.04885 14.0575 8.04885C11.046 8.04885 8.51724 10.3592 8.16667 13.3017C8.41954 13.25 8.68391 13.2213 8.95402 13.2213C10.7299 13.2213 12.2299 14.4684 12.6149 16.0891C13.0517 15.9856 13.5287 15.9224 14.0575 15.9224C15.7069 15.9224 16.977 16.5259 17.5805 17.2098C16.7299 18.158 15.4368 18.7672 14.0575 18.7672C13.5115 18.7672 12.9195 18.658 12.408 18.4569C12.3103 18.7557 12.0747 19.1351 11.7874 19.4626C12.4943 19.7615 13.2586 19.9282 14.0632 19.9282ZM14.0575 14.9282C12.9425 14.9167 12.0805 13.9856 12.0747 12.7557C12.069 11.5948 12.9483 10.6236 14.0575 10.6236C15.1609 10.6236 16.0345 11.5948 16.0345 12.7557C16.0345 13.9856 15.1667 14.9397 14.0575 14.9282ZM8.95402 19.9511C10.5632 19.9511 11.9138 18.6063 11.9138 16.9914C11.9138 15.3707 10.5805 14.0374 8.95402 14.0374C7.33333 14.0374 6 15.3707 6 16.9914C6 18.6178 7.33333 19.9511 8.95402 19.9511ZM8.95402 17.4914C8.72988 17.4914 8.56897 17.3362 8.56322 17.1121L8.51149 15.4914C8.50575 15.2328 8.68966 15.0546 8.95402 15.0546C9.22414 15.0546 9.40805 15.2328 9.4023 15.4914L9.35057 17.1121C9.34483 17.3362 9.18391 17.4914 8.95402 17.4914ZM8.95402 18.9224C8.66092 18.9224 8.42529 18.6925 8.42529 18.3994C8.42529 18.1121 8.66092 17.8822 8.95402 17.8822C9.25287 17.8822 9.48851 18.1121 9.48851 18.3994C9.48276 18.6925 9.25287 18.9224 8.95402 18.9224Z" fill="#D4353A"/>
</svg>
