<svg width="23" height="20" viewBox="0 0 23 20" fill="none" xmlns="http://www.w3.org/2000/svg">
<path d="M6.15049 16.315C6.42787 16.315 6.63261 16.2016 6.96283 15.9269L8.83186 14.3687C8.46202 14.094 8.14501 13.6463 8.14501 12.7089V8.53571C8.14501 6.65507 9.41965 5.52668 11.4934 5.52668H16.2353L16.2287 5.34161C16.1099 4.14755 15.2315 3.3535 13.6728 3.3535H4.4994C2.92096 3.3535 1.92371 4.18337 1.92371 5.64012V11.6104C1.92371 13.0492 2.90775 13.9388 4.45317 13.9388H5.51647V15.6702C5.51647 16.0642 5.75423 16.315 6.15049 16.315ZM17.226 17.1687C17.6223 17.1687 17.8534 16.918 17.8534 16.5239V14.7926H18.5403C20.0923 14.7926 21.0763 13.903 21.0763 12.4642V8.68496C21.0763 7.22822 20.0791 6.39835 18.5006 6.39835H11.6849C10.0471 6.39835 9.10924 7.22822 9.10924 8.70288V12.4642C9.10924 13.9149 10.0537 14.7926 11.6849 14.7926H13.9833L16.4137 16.7807C16.7439 17.0493 16.9486 17.1687 17.226 17.1687ZM15.1192 11.3835C14.7824 11.3835 14.5975 11.2104 14.5843 10.9059L14.4984 8.75661C14.4852 8.44018 14.7494 8.21928 15.1126 8.21928C15.4758 8.21928 15.74 8.44615 15.7268 8.75661L15.6409 10.9059C15.6277 11.2164 15.4428 11.3835 15.1192 11.3835ZM15.1126 13.3119C14.7362 13.3119 14.4191 13.0731 14.4191 12.7268C14.4191 12.3865 14.7295 12.1418 15.1126 12.1418C15.489 12.1418 15.7995 12.3806 15.7995 12.7268C15.7995 13.0791 15.489 13.3119 15.1126 13.3119Z" fill="#1C1C1E"/>
</svg>
