<svg width="25" height="25" viewBox="0 0 25 25" fill="none" xmlns="http://www.w3.org/2000/svg">
<path fill-rule="evenodd" clip-rule="evenodd" d="M12.2883 0.97998C11.1602 0.97998 10.1975 1.79555 10.012 2.90829L9.89937 3.58431C9.84175 3.93007 9.59178 4.20961 9.2635 4.33253C9.06382 4.4073 8.86742 4.48878 8.67458 4.57671C8.35549 4.72221 7.98088 4.70137 7.69552 4.49753L7.13753 4.09897C6.21956 3.44328 4.9621 3.54735 4.16442 4.34503L3.86508 4.64438C3.0674 5.44206 2.96333 6.69952 3.61901 7.61748L4.01757 8.17546C4.2214 8.46083 4.24224 8.83544 4.09675 9.15452C4.00882 9.34738 3.92733 9.54378 3.85255 9.74347C3.72964 10.0717 3.4501 10.3217 3.10434 10.3793L2.42831 10.492C1.31557 10.6775 0.5 11.6402 0.5 12.7683V13.1916C0.5 14.3197 1.31557 15.2825 2.42831 15.4679L3.10433 15.5806C3.45009 15.6382 3.72963 15.8882 3.85255 16.2165C3.92732 16.4162 4.0088 16.6126 4.09673 16.8054C4.24222 17.1245 4.22138 17.4991 4.01755 17.7845L3.61896 18.3425C2.96327 19.2604 3.06734 20.5179 3.86502 21.3156L4.16437 21.6149C4.96205 22.4126 6.21951 22.5167 7.13747 21.861L7.69548 21.4624C7.98085 21.2586 8.35546 21.2377 8.67455 21.3832C8.8674 21.4712 9.0638 21.5527 9.26349 21.6274C9.59176 21.7503 9.84173 22.0299 9.89936 22.3756L10.012 23.0517C10.1975 24.1644 11.1602 24.98 12.2883 24.98H12.7117C13.8398 24.98 14.8025 24.1644 14.988 23.0517L15.1006 22.3757C15.1583 22.0299 15.4082 21.7504 15.7365 21.6274C15.9362 21.5527 16.1326 21.4712 16.3254 21.3832C16.6445 21.2378 17.0191 21.2586 17.3045 21.4624L17.8625 21.861C18.7804 22.5167 20.0379 22.4126 20.8356 21.6149L21.1349 21.3156C21.9326 20.5179 22.0367 19.2604 21.381 18.3425L20.9824 17.7845C20.7786 17.4991 20.7578 17.1245 20.9032 16.8054C20.9912 16.6126 21.0727 16.4162 21.1474 16.2165C21.2704 15.8882 21.5499 15.6383 21.8957 15.5806L22.5717 15.468C23.6844 15.2825 24.5 14.3197 24.5 13.1917V12.7683C24.5 11.6402 23.6844 10.6775 22.5717 10.492L21.8957 10.3794C21.5499 10.3217 21.2704 10.0718 21.1475 9.74349C21.0727 9.54381 20.9912 9.34741 20.9033 9.15457C20.7578 8.83548 20.7786 8.46087 20.9825 8.1755L21.381 7.61748C22.0367 6.69952 21.9327 5.44206 21.135 4.64438L20.8356 4.34503C20.038 3.54735 18.7805 3.44328 17.8625 4.09897L17.3045 4.49755C17.0191 4.70138 16.6445 4.72222 16.3254 4.57673C16.1326 4.4888 15.9362 4.40731 15.7365 4.33254C15.4082 4.20962 15.1583 3.93008 15.1006 3.58432L14.988 2.90829C14.8025 1.79555 13.8398 0.97998 12.7117 0.97998H12.2883ZM12.5 17.5954C15.049 17.5954 17.1154 15.529 17.1154 12.98C17.1154 10.431 15.049 8.3646 12.5 8.3646C9.95099 8.3646 7.88462 10.431 7.88462 12.98C7.88462 15.529 9.95099 17.5954 12.5 17.5954Z" fill="#262626"/>
</svg>
