<svg width="16" height="16" viewBox="0 0 16 16" fill="none" xmlns="http://www.w3.org/2000/svg">
<path fill-rule="evenodd" clip-rule="evenodd" d="M0 2.28571C0 1.02335 1.02335 0 2.28571 0H3.33076C3.98629 0 4.55769 0.446139 4.71668 1.08209L5.55919 4.45214C5.6986 5.00975 5.49024 5.59661 5.03042 5.94147L4.0448 6.68069C3.94245 6.75745 3.9202 6.86985 3.94895 6.94833C4.8141 9.31009 6.68992 11.1859 9.05167 12.051C9.13015 12.0798 9.24256 12.0575 9.31932 11.9552L10.0585 10.9696C10.4034 10.5098 10.9902 10.3014 11.5479 10.4408L14.9179 11.2833C15.5539 11.4423 16 12.0137 16 12.6692V13.7143C16 14.9767 14.9767 16 13.7143 16H12C5.37258 16 0 10.6274 0 4V2.28571Z" fill="#F4F5F5"/>
</svg>
